# xmcd
#
# Track frame offsets: 
#        150
#        22036
#        44603
#        62635
#        79044
#        95832
#        113803
#        132259
#        147246
#        162533
#        176773
#        193731
#        211944
#        224012
#        244915
#        260244
#
# Disc length: 3658 seconds
#
# Revision: 0
# Processed by: cddbd v1.5.1PL0 Copyright (c) Steve Scherf et al.
# Submitted via: ExactAudioCopy v0.95a5
#
DISCID=010e4810
DTITLE=John Edmonds - Aviasongs
DYEAR=2005
DGENRE=Folk
TTITLE0=Kunkuru Eagle
TTITLE1=Checklist Blues
TTITLE2=Biplane Evermore
TTITLE3=43 Air School
TTITLE4=Old Bold Pilots
TTITLE5=Early Morning Rain
TTITLE6=Coming In on a Wind and a Prayer
TTITLE7=Snoopy vs. The Red Baron
TTITLE8=Come Fly with me
TTITLE9=Homesick Angel
TTITLE10=Leaving on a jet Plane
TTITLE11=Green Leader
TTITLE12=The Gunship Calypso
TTITLE13=Angels on may Wingtips
TTITLE14=Wish I was a Blue Job
TTITLE15=You aint no Hero
EXTD=
EXTT0=
EXTT1=
EXTT2=
EXTT3=
EXTT4=
EXTT5=
EXTT6=
EXTT7=
EXTT8=
EXTT9=
EXTT10=
EXTT11=
EXTT12=
EXTT13=
EXTT14=
EXTT15=
PLAYORDER=
